<svg width="360" height="493" viewBox="0 0 360 493" fill="none" xmlns="http://www.w3.org/2000/svg">
<rect y="107" width="360" height="386" fill="#28569D"/>
<path d="M167.001 108.5C158 108.457 151.937 116.423 143.001 117.5C132.144 118.809 121.501 121 112.001 116C103.866 111.719 95.6577 109.298 86.5005 108.5C76.1742 107.601 67.2758 108.552 57.5005 112C50.6475 114.417 45.1784 117.867 38.0006 119C20.0005 121.842 16.5005 112.5 -0.499512 108.5C-17.4995 104.5 -15.9994 108.5 -15.9994 108.5V135.5H373.001V113.5C373.001 113.5 362.585 109.073 355.501 108.5C349.245 107.994 345.72 109.163 339.501 110C332.023 111.006 327.917 112.112 320.501 113.5C312.295 115.036 307.845 117.242 299.501 117.5C293.033 117.701 289.29 117.518 283.001 116C275.773 114.256 272.773 110.05 265.501 108.5C257.671 106.831 252.983 107.892 245.001 108.5C234.117 109.33 228.251 111.612 217.501 113.5C211.841 114.494 208.747 116.035 203.001 116C197.447 115.967 189.001 113.5 189.001 113.5C189.001 113.5 175.811 108.543 167.001 108.5Z" stroke="#28569D" stroke-width="40"/>
<path d="M167.001 92.5002C158 92.4569 153.437 96.4228 144.501 97.5002C133.645 98.809 127.862 100.269 117.001 99.0002C107.871 97.9333 105.658 91.798 96.501 91C86.1747 90.1001 74.2762 90.0523 64.501 93.5002C57.648 95.9173 56.0174 99.1091 49.001 101C40.1078 103.397 36.3061 101.703 27.501 99.0002C20.1542 96.7453 17.4055 94.5574 10.001 92.5002C0.217896 89.7822 -15.999 92.5002 -15.999 92.5002V119.5H373.001V97.5002C373.001 97.5002 376.585 93.0733 369.501 92.5002C363.246 91.9941 345.721 93.1633 339.501 94.0002C332.024 95.0063 336.417 94.1119 329.001 95.5C320.795 97.036 319.345 99.7415 311.001 100C304.534 100.201 295.791 101.518 289.501 100C282.273 98.256 272.773 94.0504 265.501 92.5002C257.671 90.8311 252.984 91.8918 245.001 92.5002C234.117 93.3296 228.252 95.6117 217.501 97.5002C211.841 98.4943 208.747 100.035 203.001 100C197.447 99.967 189.001 97.5002 189.001 97.5002C189.001 97.5002 175.812 92.5425 167.001 92.5002Z" stroke="#28569D"/>
<rect x="135" y="83.8794" width="95" height="19.6551" fill="white"/>
<rect x="134" y="77" width="85" height="30.4654" fill="white"/>
<path d="M139 100.586H227V100.586C227 119.04 212.041 134 193.587 134H172.414C153.96 134 139 119.04 139 100.586V100.586Z" fill="white"/>
<g clip-path="url(#clip0_226_377)">
<path fill-rule="evenodd" clip-rule="evenodd" d="M180.5 35C209.449 35 233 58.5514 233 87.5C233 116.449 209.449 140 180.5 140C151.552 140 128 116.449 128 87.5C128 58.5514 151.552 35 180.5 35ZM180.5 42.3598C205.524 42.3598 225.641 62.4766 225.641 87.5C225.641 112.523 205.524 132.64 180.5 132.64C155.477 132.64 135.36 112.523 135.36 87.5C135.36 62.4766 155.477 42.3598 180.5 42.3598Z" fill="#353C41"/>
<path fill-rule="evenodd" clip-rule="evenodd" d="M217.299 96.3315C211.902 98.2941 206.014 99.7661 200.617 99.7661C189.332 99.7661 177.556 92.4062 166.271 92.4062C158.912 92.4062 151.552 95.3502 144.192 97.8034C148.608 113.504 163.327 125.28 180.5 125.28C198.164 125.28 213.374 113.014 217.299 96.3315Z" fill="url(#paint0_linear_226_377)"/>
</g>
<path d="M73.0005 172.918H79.1534V167.2L81.4203 164.659L86.9255 172.918H94.3738L85.6302 160.529L94.05 151H86.6017L79.1534 159.894V151H73.0005V172.918ZM100.851 173.235C102.794 173.235 104.737 172.282 105.708 171.012V172.918H111.861V163.071C111.861 160.847 111.213 158.941 109.918 157.671C108.623 156.4 106.356 155.765 103.441 155.765C100.527 155.765 98.2599 156.4 96.3168 157.035L97.6122 161.165C99.2314 160.529 100.527 160.212 102.47 160.212C104.737 160.212 105.708 161.165 105.708 163.071V163.388C104.737 163.071 103.117 162.753 101.498 162.753C97.6122 162.753 95.0215 164.341 95.0215 167.835C95.0215 171.329 97.2883 173.235 100.851 173.235ZM102.794 169.424C101.498 169.424 100.851 168.788 100.851 167.835C100.851 166.247 101.822 165.612 103.441 165.612C104.413 165.612 105.384 165.612 105.708 165.929V166.882C105.708 168.471 104.737 169.424 102.794 169.424ZM114.776 172.918H120.929V166.882H125.786V172.918H131.939V156.082H125.786V162.118H120.929V156.082H114.776V172.918ZM140.035 173.235C142.302 173.235 143.921 172.282 145.216 171.012V172.918H151.045V163.071C151.045 160.847 150.398 158.941 149.102 157.671C147.807 156.4 145.864 155.765 142.626 155.765C139.711 155.765 137.768 156.4 135.825 157.035L136.797 161.165C138.416 160.529 140.035 160.212 141.654 160.212C143.921 160.212 145.216 161.165 145.216 163.071V163.388C144.245 163.071 142.626 162.753 141.006 162.753C136.797 162.753 134.206 164.341 134.206 167.835C134.206 171.329 136.797 173.235 140.035 173.235ZM142.302 169.424C141.006 169.424 140.035 168.788 140.035 167.835C140.035 166.247 141.006 165.612 142.95 165.612C143.597 165.612 144.569 165.612 145.216 165.929V166.882C145.216 168.471 143.921 169.424 142.302 169.424ZM155.579 173.235C159.141 173.235 162.056 171.329 162.056 161.165V160.847H165.294V172.918H171.123V156.082H156.227V159.259C156.227 167.835 155.255 168.471 153.96 168.471C153.96 168.471 153.636 168.471 152.988 168.153V172.918C153.636 172.918 154.932 173.235 155.579 173.235ZM182.782 173.235C186.668 173.235 188.935 171.647 190.554 169.424L186.344 166.565C185.372 167.518 184.401 168.153 183.105 168.153C181.162 168.153 179.543 166.565 179.543 164.341C179.543 162.435 180.839 160.529 183.105 160.529C184.401 160.529 185.372 161.165 186.344 162.435L190.23 159.576C188.935 157.035 186.344 155.765 183.105 155.765C177.6 155.765 173.714 159.576 173.714 164.341C173.714 169.424 177.6 173.235 182.782 173.235ZM200.917 173.235C204.479 173.235 206.746 171.965 208.689 169.741L205.126 167.2C203.831 168.471 202.86 168.788 201.24 168.788C199.621 168.788 198.002 167.835 197.678 166.247H209.336C209.336 165.612 209.336 165.294 209.336 164.976C209.336 159.894 206.422 155.765 200.593 155.765C195.411 155.765 191.849 159.576 191.849 164.341C191.849 169.741 195.735 173.235 200.917 173.235ZM197.678 163.071C198.002 161.165 198.973 159.894 200.593 159.894C202.212 159.894 203.183 161.165 203.507 163.071H197.678ZM211.927 178H217.756V170.694C219.051 171.965 220.347 173.235 222.938 173.235C227.147 173.235 230.71 170.059 230.71 164.341C230.71 158.941 227.147 155.765 222.938 155.765C220.347 155.765 219.051 156.718 217.756 158.306V156.082H211.927V178ZM221.318 168.153C219.375 168.153 217.756 166.565 217.756 164.341C217.756 162.118 219.375 160.529 221.318 160.529C223.261 160.529 224.881 162.118 224.881 164.341C224.881 166.882 223.261 168.153 221.318 168.153ZM233.3 172.918H243.339C247.549 172.918 249.816 171.012 249.816 168.153C249.816 165.929 248.845 164.659 246.578 164.024C248.197 163.388 249.168 162.118 249.168 160.212C249.168 159.259 248.845 158.306 248.197 157.671C247.225 156.4 245.606 156.082 243.339 156.082H233.3V172.918ZM239.129 169.106V165.929H241.72C243.015 165.929 243.987 166.565 243.987 167.518C243.987 168.471 243.015 169.106 241.72 169.106H239.129ZM239.129 162.753V159.894H241.396C242.692 159.894 243.339 160.529 243.339 161.165C243.339 162.118 242.692 162.753 241.072 162.753H239.129ZM252.731 172.918H258.236L264.065 164.341V172.918H269.894V156.082H264.065L258.56 164.341V156.082H252.731V172.918ZM281.228 173.235C285.114 173.235 287.381 171.647 289 169.424L284.791 166.565C283.819 167.518 283.171 168.153 281.552 168.153C279.609 168.153 278.314 166.565 278.314 164.341C278.314 162.435 279.609 160.529 281.876 160.529C283.171 160.529 284.143 161.165 284.791 162.435L289 159.576C287.381 157.035 285.114 155.765 281.552 155.765C276.047 155.765 272.485 159.576 272.485 164.341C272.485 169.424 276.047 173.235 281.228 173.235Z" fill="#E9E9E9"/>
<path d="M35.6611 190.854C15.5086 194.725 -15.007 204.561 -15.007 204.561H-21V465H368V184C368 184 365.5 176 347.5 176C328.44 176 325 176.5 298 189.5C281.038 197.667 271.304 206.083 252.5 207.5C226.534 209.456 214.499 211.131 189 206C166.668 201.506 153.317 195.434 131.004 190.854C111.926 186.937 102.017 184.924 82.5154 185.054C64.069 185.178 53.7547 187.378 35.6611 190.854Z" fill="#004389"/>
<path d="M-31.5234 340.798C-59.1143 343.565 -103 340.798 -103 340.798V602H406V329.934C406 329.934 380.74 322.681 362.5 325.21C336.572 328.805 320.669 332.681 294.5 329.934C266.24 326.967 243.392 338.701 215.5 334.5C190.552 330.743 179.037 326.384 153.5 325.21C124.811 323.892 106.465 324.817 78 327.5C54.3069 329.734 27.5634 336.603 4.5 340.798C-18.1126 344.91 -8.32463 338.47 -31.5234 340.798Z" fill="#005099"/>
<path d="M27.6889 439.074C13.8653 443.151 -8 448.596 -8 448.596V630L367 628.497V429.553C367 429.553 345.586 428.687 333 432.5C320.754 436.21 314.251 440.804 302 444.5C285.062 449.61 276.787 453.36 259 453.5C240.395 453.646 229.856 449.419 212 444.5C198.541 440.792 191.398 436.398 178 432.5C163.104 428.166 155.375 426.478 140 424.041C123.916 421.491 113.807 420.662 97.5 421C81.5296 421.332 73.0066 425.874 57.5185 429.553C45.5915 432.387 39.4271 435.613 27.6889 439.074Z" fill="#005C9D"/>
<path d="M22.0217 95.7582V138.623L22.5137 232.476C22.5137 249.724 22.8828 258.469 23.99 260.012C25.0971 261.555 24.9739 262.069 26.4504 263.098C28.9107 264.641 33.8315 265.67 33.8315 265.67L70.6697 266.134V276.471C70.6697 276.471 38.9388 279.043 27.9264 277.5C16.9139 275.957 11.9393 267.908 11.9367 260.012C11.9364 258.983 11.9366 257.954 11.9366 232.476L11.9366 138.623L11.9366 91.3481L22.0217 95.7582Z" fill="url(#paint1_linear_226_377)" fill-opacity="0.501961"/>
<path d="M85.9916 279.558C90.8834 279.558 94.849 275.412 94.849 270.299C94.849 265.186 90.8834 261.041 85.9916 261.041C81.0999 261.041 77.1343 265.186 77.1343 270.299C77.1343 275.412 81.0999 279.558 85.9916 279.558Z" fill="#F8F8F8"/>
<path fill-rule="evenodd" clip-rule="evenodd" d="M200.996 245.85C65.7371 262.186 65.7371 277.392 200.996 293.727C236.761 298.018 236.761 241.484 200.996 245.85Z" fill="url(#paint2_linear_226_377)"/>
<path d="M32 222L339 222.178" stroke="url(#paint3_radial_226_377)" stroke-opacity="0.5" stroke-width="8"/>
<path d="M23 320L339 320" stroke="url(#paint4_radial_226_377)" stroke-opacity="0.5" stroke-width="8"/>
<path fill-rule="evenodd" clip-rule="evenodd" d="M40.6153 265.155H38.8307C38.7257 265.155 38.7257 278.529 38.8307 278.529H40.6153C40.6153 278.529 40.7203 275.603 40.7203 271.842C40.7203 268.081 40.6153 265.155 40.6153 265.155Z" fill="#9D9E9E"/>
<path fill-rule="evenodd" clip-rule="evenodd" d="M42.6346 265.155H41.7051V278.529H42.6346C42.6892 278.529 42.6892 275.603 42.6892 271.842C42.6892 268.081 42.6892 265.155 42.6346 265.155Z" fill="#9D9E9E"/>
<path fill-rule="evenodd" clip-rule="evenodd" d="M45.434 265.155H43.6729V278.529H45.434C45.5376 278.529 45.6412 275.603 45.6412 271.842C45.6412 268.081 45.5376 265.155 45.434 265.155Z" fill="#9D9E9E"/>
<path fill-rule="evenodd" clip-rule="evenodd" d="M47.5567 265.155H46.6644C46.6119 265.155 46.6119 278.529 46.6644 278.529H47.5567C47.5567 278.529 47.6092 275.603 47.6092 271.842C47.6092 268.081 47.5567 265.155 47.5567 265.155Z" fill="#9D9E9E"/>
<path fill-rule="evenodd" clip-rule="evenodd" d="M50.4571 265.155H48.6725C48.5675 265.155 48.5675 278.529 48.6725 278.529H50.4571C50.562 278.529 50.562 275.603 50.562 271.842C50.562 268.081 50.562 265.155 50.4571 265.155Z" fill="#9D9E9E"/>
<path fill-rule="evenodd" clip-rule="evenodd" d="M52.4754 265.155H51.5459V278.529H52.4754C52.5301 278.529 52.5301 275.603 52.5301 271.842C52.5301 268.081 52.5301 265.155 52.4754 265.155Z" fill="#9D9E9E"/>
<path fill-rule="evenodd" clip-rule="evenodd" d="M55.3782 265.155H54.5384C54.4859 265.155 54.4859 278.529 54.5384 278.529H55.3782C55.4307 278.529 55.4832 275.603 55.4832 271.842C55.4832 268.081 55.4307 265.155 55.3782 265.155Z" fill="#9D9E9E"/>
<path fill-rule="evenodd" clip-rule="evenodd" d="M58.3301 265.155H56.5455C56.4406 265.155 56.4406 278.529 56.5455 278.529H58.3301C58.3301 278.529 58.4351 275.603 58.4351 271.842C58.4351 268.081 58.3301 265.155 58.3301 265.155Z" fill="#9D9E9E"/>
<path fill-rule="evenodd" clip-rule="evenodd" d="M61.2779 265.155H59.4189V278.529H61.2779C61.3872 278.529 61.3872 275.603 61.3872 271.842C61.3872 268.081 61.3872 265.155 61.2779 265.155Z" fill="#9D9E9E"/>
<path fill-rule="evenodd" clip-rule="evenodd" d="M63.1488 265.155H61.3877V278.529H63.1488C63.2524 278.529 63.356 275.603 63.356 271.842C63.356 268.081 63.2524 265.155 63.1488 265.155Z" fill="#9D9E9E"/>
<path fill-rule="evenodd" clip-rule="evenodd" d="M65.2715 265.155H64.3792C64.3267 265.155 64.3267 278.529 64.3792 278.529H65.2715C65.2715 278.529 65.324 275.603 65.324 271.842C65.324 268.081 65.2715 265.155 65.2715 265.155Z" fill="#9D9E9E"/>
<path fill-rule="evenodd" clip-rule="evenodd" d="M68.1719 265.155H66.3873C66.2823 265.155 66.2823 278.529 66.3873 278.529H68.1719C68.2769 278.529 68.2769 275.603 68.2769 271.842C68.2769 268.081 68.2769 265.155 68.1719 265.155Z" fill="#9D9E9E"/>
<path fill-rule="evenodd" clip-rule="evenodd" d="M41.4974 265.155H39.7363V278.529H41.4974C41.601 278.529 41.7046 275.603 41.7046 271.842C41.7046 268.081 41.601 265.155 41.4974 265.155Z" fill="#C5C6C6"/>
<path fill-rule="evenodd" clip-rule="evenodd" d="M44.5518 265.155H42.7672C42.6622 265.155 42.6622 278.529 42.7672 278.529H44.5518C44.5518 278.529 44.6568 275.603 44.6568 271.842C44.6568 268.081 44.5518 265.155 44.5518 265.155Z" fill="#C5C6C6"/>
<path fill-rule="evenodd" clip-rule="evenodd" d="M46.5733 265.155H45.681C45.6285 265.155 45.6285 278.529 45.681 278.529H46.5733C46.6257 278.529 46.6257 275.603 46.6257 271.842C46.6257 268.081 46.6257 265.155 46.5733 265.155Z" fill="#C5C6C6"/>
<path fill-rule="evenodd" clip-rule="evenodd" d="M48.5389 265.155H47.6094V278.529H48.5389C48.5935 278.529 48.5935 275.603 48.5935 271.842C48.5935 268.081 48.5935 265.155 48.5389 265.155Z" fill="#C5C6C6"/>
<path fill-rule="evenodd" clip-rule="evenodd" d="M51.3365 265.155H49.6569C49.5519 265.155 49.5519 278.529 49.6569 278.529H51.3365C51.4415 278.529 51.5464 275.603 51.5464 271.842C51.5464 268.081 51.4415 265.155 51.3365 265.155Z" fill="#C5C6C6"/>
<path fill-rule="evenodd" clip-rule="evenodd" d="M54.3936 265.155H52.609C52.504 265.155 52.504 278.529 52.609 278.529H54.3936C54.3936 278.529 54.4986 275.603 54.4986 271.842C54.4986 268.081 54.3936 265.155 54.3936 265.155Z" fill="#C5C6C6"/>
<path fill-rule="evenodd" clip-rule="evenodd" d="M57.3414 265.155H55.4824V278.529H57.3414C57.4507 278.529 57.4507 275.603 57.4507 271.842C57.4507 268.081 57.4507 265.155 57.3414 265.155Z" fill="#C5C6C6"/>
<path fill-rule="evenodd" clip-rule="evenodd" d="M59.3161 265.155H58.4355V278.529H59.3161C59.3679 278.529 59.4197 275.603 59.4197 271.842C59.4197 268.081 59.3679 265.155 59.3161 265.155Z" fill="#C5C6C6"/>
<path fill-rule="evenodd" clip-rule="evenodd" d="M61.335 265.155H60.4427C60.3902 265.155 60.3902 278.529 60.4427 278.529H61.335C61.335 278.529 61.3875 275.603 61.3875 271.842C61.3875 268.081 61.335 265.155 61.335 265.155Z" fill="#C5C6C6"/>
<path fill-rule="evenodd" clip-rule="evenodd" d="M64.2354 265.155H62.4508C62.3458 265.155 62.3458 278.529 62.4508 278.529H64.2354C64.3404 278.529 64.3404 275.603 64.3404 271.842C64.3404 268.081 64.3404 265.155 64.2354 265.155Z" fill="#C5C6C6"/>
<path fill-rule="evenodd" clip-rule="evenodd" d="M67.1832 265.155H65.3242V278.529H67.1832C67.2925 278.529 67.2925 275.603 67.2925 271.842C67.2925 268.081 67.2925 265.155 67.1832 265.155Z" fill="#C5C6C6"/>
<path fill-rule="evenodd" clip-rule="evenodd" d="M69.156 264.127H68.3162C68.2637 264.127 68.2637 279.558 68.3162 279.558H69.156C69.2085 279.558 69.261 276.143 69.261 271.842C69.261 267.542 69.2085 264.127 69.156 264.127Z" fill="#727271"/>
<path fill-rule="evenodd" clip-rule="evenodd" d="M87.1611 259.274C82.3197 259.552 68.8545 258.162 68.8545 265.115C68.8545 268.731 68.8545 272.44 68.8545 276.056C68.8545 283.01 82.3197 281.619 87.1611 281.897C92.4564 282.268 92.4564 258.903 87.1611 259.274Z" fill="#E8EBEB"/>
<path d="M23.4043 245H39.7086V262H32.4043C27.4337 262 23.4043 257.971 23.4043 253V245Z" fill="#004389"/>
<rect x="61" y="294" width="214" height="22" fill="#004389"/>
<defs>
<linearGradient id="paint0_linear_226_377" x1="180.747" y1="125.262" x2="180.747" y2="92.6403" gradientUnits="userSpaceOnUse">
<stop stop-color="#264F99"/>
<stop offset="1" stop-color="#2960A2"/>
</linearGradient>
<linearGradient id="paint1_linear_226_377" x1="38.7523" y1="15.1762" x2="41.5396" y2="276.469" gradientUnits="userSpaceOnUse">
<stop stop-color="#28569D"/>
<stop offset="0.284175" stop-color="#6F9AD9"/>
<stop offset="0.595384" stop-color="#94BEDC"/>
<stop offset="1" stop-color="#C2E1FF"/>
</linearGradient>
<linearGradient id="paint2_linear_226_377" x1="99.3688" y1="270.168" x2="239.893" y2="270.435" gradientUnits="userSpaceOnUse">
<stop offset="0.05097" stop-color="#FEFEFE" stop-opacity="0.7"/>
<stop offset="1" stop-color="#FEFEFE" stop-opacity="0"/>
</linearGradient>
<radialGradient id="paint3_radial_226_377" cx="0" cy="0" r="1" gradientUnits="userSpaceOnUse" gradientTransform="translate(-10.1993 232.19) rotate(-0.120148) scale(373.178 147372)">
<stop stop-color="#3371BA"/>
<stop offset="0.286458" stop-color="#5689C6" stop-opacity="0.307292"/>
<stop offset="0.4228" stop-color="#73A1D7" stop-opacity="0.379839"/>
<stop offset="0.567708" stop-color="#5987BD" stop-opacity="0.456945"/>
<stop offset="0.739537" stop-color="#73A1D7" stop-opacity="0.37"/>
<stop offset="0.942708" stop-color="#2B70C2" stop-opacity="0.671875"/>
</radialGradient>
<radialGradient id="paint4_radial_226_377" cx="0" cy="0" r="1" gradientUnits="userSpaceOnUse" gradientTransform="translate(-17.535 319.723) rotate(0.0454733) scale(356.535 136790)">
<stop stop-color="#3C78BF"/>
<stop offset="0.286458" stop-color="#729ED2" stop-opacity="0.307292"/>
<stop offset="0.567708" stop-color="#8BA1BC" stop-opacity="0.456945"/>
<stop offset="0.942708" stop-color="#4F80BA" stop-opacity="0.671875"/>
</radialGradient>
<clipPath id="clip0_226_377">
<rect width="105" height="105" fill="white" transform="translate(128 35)"/>
</clipPath>
</defs>
</svg>
